<?xml version="1.0" encoding="utf-8"?>
<!-- Generator: Adobe Illustrator 23.0.5, SVG Export Plug-In . SVG Version: 6.00 Build 0)  -->
<svg version="1.1"
	 id="svg8" xmlns:cc="http://creativecommons.org/ns#" xmlns:dc="http://purl.org/dc/elements/1.1/" xmlns:rdf="http://www.w3.org/1999/02/22-rdf-syntax-ns#" xmlns:svg="http://www.w3.org/2000/svg"
	 xmlns="http://www.w3.org/2000/svg" xmlns:xlink="http://www.w3.org/1999/xlink" x="0px" y="0px" viewBox="0 0 120 60"
	 style="enable-background:new 0 0 120 60;" xml:space="preserve">
<style type="text/css">
	.st0{display:none;}
	.st1{fill:#333333;}
	.st2{display:inline;fill:#6AA0CE;}
	.st3{fill:#127CC2;}
</style>
<g id="g961" transform="translate(0.16966669)">
	<g id="text36" class="st0">
		<path id="path14" class="st1" d="M58.5,34.6c-0.5,1.4-1.3,2.6-2.4,3.5C55,39.1,54,39.7,53,40.1c-0.9,0.3-1.8,0.5-2.6,0.5
			c-2.1,0-3.1-0.8-3.1-2.4c0-1.6,0.9-3.1,2.7-4.5c0.9-0.6,1.8-1,2.8-1.2c0.1,0,0.2,0.1,0.2,0.2c0,0.1,0,0.1-0.1,0.2
			c-0.7,0.5-1.4,1.4-2,2.5c-0.6,1.1-0.9,2.1-0.9,3c0,0.9,0.4,1.3,1.1,1.3c0.6,0,1.1-0.2,1.7-0.7c0.6-0.5,1-1,1.3-1.5l0.4-0.7
			c0.6-0.9,1-2.4,1.4-4.4c0.4-2,0.7-3.8,0.8-5.3l0.1-2.3c0-0.2,0-0.3-0.1-0.3l-0.2,0.1l-4.2,4.9c-0.3,0.4-0.5,0.6-0.6,0.6
			c-0.1,0-0.2-0.1-0.2-0.3c0-0.4,0.1-0.7,0.3-0.9l0.4-0.5c3.2-3.6,5.1-5.8,5.5-6.6c0.4-0.7,1.1-1.2,1.9-1.7c0.8-0.5,1.7-0.7,2.8-0.7
			c0.3,0,0.4,0.1,0.4,0.3c0,0.1-0.1,0.3-0.3,0.4c-0.1,0-0.2,0.1-0.3,0.2c-0.1,0.1-0.3,0.3-0.7,0.7c-0.3,0.4-0.6,0.8-0.9,1.3
			c-0.3,0.5-0.5,1.2-0.7,2c-0.2,0.9-0.3,1.8-0.3,2.9C59.5,30.5,59.2,33,58.5,34.6L58.5,34.6z"/>
		<path id="path16" class="st1" d="M84.2,33c1.2-1.2,2.8-2.9,4.7-5.2c0.1-0.1,0.2-0.1,0.2-0.1c0.1,0,0.1,0.1,0.1,0.2
			c0,0.5-0.2,1.1-0.6,1.6c-2.1,2.3-4,4.3-5.6,5.8c-3.4,3.1-5.6,4.7-6.6,4.7c-0.5,0-0.7-0.3-0.7-0.8c0-0.5,0.3-1.4,0.9-2.7
			c0.6-1.3,1.2-2.4,1.7-3.4c0.6-1,1.3-2.3,2.2-3.8c0.9-1.5,1.4-2.3,1.5-2.4c0.5-0.8,0.8-1.4,0.8-1.6c0-0.1-0.1-0.2-0.2-0.2l-0.6,0.2
			c-1.3,0.9-2.9,2.4-4.7,4.4c-1.8,2-3.3,3.7-4.5,5.2L71,37.2c-1.3,1.9-2.6,2.8-3.8,2.8c-0.4,0-0.6-0.1-0.6-0.3c0-0.3,0.3-0.9,0.8-2
			c0.5-1.1,1.1-2.1,1.6-3.1l0.8-1.5c0.2-0.4,0.7-1.3,1.5-2.6c0.8-1.3,1.5-2.5,2-3.4c0.5-1,0.8-1.6,0.8-1.8c0-0.1-0.1-0.2-0.2-0.2
			l-0.6,0.3c-1.3,0.9-2.9,2.4-4.7,4.4c-1.8,2-3.3,3.7-4.4,5.2l-1.7,2.3c-1.3,1.8-2.6,2.8-3.8,2.8c-0.4,0-0.6-0.1-0.6-0.3
			c0-0.3,0.3-0.9,0.8-2c0.5-1.1,1.1-2.1,1.6-3.1l0.8-1.5l4.1-7.3c0.7-1.3,1.5-2.4,2.5-3.4c1-1,2-1.5,3-1.5c0.2,0,0.3,0.1,0.3,0.3
			c0,0.2-0.2,0.5-0.5,1.1c-0.3,0.5-0.8,1.3-1.4,2.3c-0.6,1-1.1,1.9-1.5,2.7c-0.3,0.5-0.6,1-0.9,1.7c-0.3,0.6-0.6,1.1-0.9,1.5
			c-0.2,0.4-0.4,0.7-0.5,0.9c-0.1,0.2-0.1,0.3-0.1,0.4c0,0.1,0,0.1,0.1,0.1c0.1,0,0.2-0.1,0.4-0.3c0.5-0.6,1.2-1.4,2.1-2.3
			c0.9-0.9,2.4-2.3,4.4-4.2c2.1-1.9,3.8-3.2,5.1-3.8c0.3-0.1,0.6-0.2,0.9-0.2c0.4,0,0.6,0.2,0.6,0.6c0,0.7-0.8,2.7-2.5,5.8
			c-0.1,0.3-0.4,0.8-0.9,1.5c-0.4,0.7-0.8,1.4-1.1,1.9c-0.3,0.5-0.4,0.9-0.4,1c0,0.1,0,0.1,0.1,0.1c0.1,0,0.2-0.1,0.4-0.3
			c0.5-0.6,1.2-1.4,2.1-2.3c0.9-0.9,2.3-2.3,4.4-4.2c2.1-1.9,3.8-3.2,5.1-3.8c0.3-0.1,0.6-0.2,0.9-0.2c0.4,0,0.6,0.2,0.6,0.6
			c0,0.1-0.1,0.4-0.2,0.8c-0.1,0.4-0.4,1.2-1,2.3c-0.5,1.2-1.3,2.5-2.1,3.9c-2.2,3.3-3.2,5.4-3.2,6.3c0,0.3,0.1,0.4,0.3,0.4
			C81.9,35.1,82.8,34.4,84.2,33L84.2,33z"/>
		<path id="path18" class="st1" d="M109,33c1.2-1.2,2.8-2.9,4.7-5.2c0.1-0.1,0.2-0.1,0.2-0.1c0.1,0,0.1,0.1,0.1,0.2
			c0,0.5-0.2,1.1-0.6,1.6c-2.1,2.3-4,4.3-5.6,5.8c-3.4,3.1-5.6,4.7-6.6,4.7c-0.5,0-0.7-0.3-0.7-0.8c0-0.5,0.3-1.4,0.9-2.7
			c0.6-1.3,1.2-2.4,1.7-3.4c0.6-1,1.3-2.3,2.2-3.8c0.9-1.5,1.4-2.3,1.5-2.4c0.5-0.8,0.8-1.4,0.8-1.6c0-0.1-0.1-0.2-0.2-0.2l-0.6,0.2
			c-1.3,0.9-2.9,2.4-4.7,4.4c-1.8,2-3.3,3.7-4.5,5.2l-1.7,2.3c-1.3,1.9-2.6,2.8-3.8,2.8c-0.4,0-0.6-0.1-0.6-0.3c0-0.3,0.3-0.9,0.8-2
			c0.5-1.1,1.1-2.1,1.6-3.1l0.8-1.5c0.2-0.4,0.7-1.3,1.5-2.6c0.8-1.3,1.5-2.5,2-3.4c0.5-1,0.8-1.6,0.8-1.8c0-0.1-0.1-0.2-0.2-0.2
			l-0.6,0.3c-1.3,0.9-2.9,2.4-4.7,4.4c-1.8,2-3.3,3.7-4.4,5.2l-1.7,2.3c-1.3,1.8-2.6,2.8-3.8,2.8c-0.4,0-0.6-0.1-0.6-0.3
			c0-0.3,0.3-0.9,0.8-2c0.5-1.1,1.1-2.1,1.6-3.1l0.8-1.5l4.1-7.3c0.7-1.3,1.5-2.4,2.5-3.4c1-1,2-1.5,3-1.5c0.2,0,0.3,0.1,0.3,0.3
			c0,0.2-0.2,0.5-0.5,1.1c-0.3,0.5-0.8,1.3-1.4,2.3c-0.6,1-1.1,1.9-1.5,2.7c-0.3,0.5-0.6,1-0.9,1.7c-0.3,0.6-0.6,1.1-0.9,1.5
			c-0.2,0.4-0.4,0.7-0.5,0.9c-0.1,0.2-0.1,0.3-0.1,0.4c0,0.1,0,0.1,0.1,0.1c0.1,0,0.2-0.1,0.4-0.3c0.5-0.6,1.2-1.4,2.1-2.3
			c0.9-0.9,2.4-2.3,4.4-4.2c2.1-1.9,3.8-3.2,5.1-3.8c0.3-0.1,0.6-0.2,0.9-0.2c0.4,0,0.6,0.2,0.6,0.6c0,0.7-0.8,2.7-2.5,5.8
			c-0.1,0.3-0.4,0.8-0.9,1.5c-0.4,0.7-0.8,1.4-1.1,1.9c-0.3,0.5-0.4,0.9-0.4,1c0,0.1,0,0.1,0.1,0.1c0.1,0,0.2-0.1,0.4-0.3
			c0.5-0.6,1.2-1.4,2.1-2.3c0.9-0.9,2.3-2.3,4.4-4.2c2.1-1.9,3.8-3.2,5.1-3.8c0.3-0.1,0.6-0.2,0.9-0.2c0.4,0,0.6,0.2,0.6,0.6
			c0,0.1-0.1,0.4-0.2,0.8c-0.1,0.4-0.4,1.2-1,2.3c-0.5,1.2-1.3,2.5-2.1,3.9c-2.2,3.3-3.2,5.4-3.2,6.3c0,0.3,0.1,0.4,0.3,0.4
			C106.7,35.1,107.6,34.4,109,33L109,33z"/>
	</g>
	<g id="g953" transform="translate(-8.5826662,13.263705)" class="st0">
		<path id="rect912" class="st2" d="M14.3,23.7h36v5h-36V23.7z"/>
		<path id="rect912-9" class="st2" d="M14.3,14.2h36v5h-36V14.2z"/>
		<path id="rect912-8" class="st2" d="M14.3,4.7h36v5h-36V4.7z"/>
	</g>
</g>
<g>
	<g>
		<path class="st3" d="M19.8,15.9c0.9-0.2,2.3-0.3,3.9-0.3c1.9,0,3.3,0.3,4.2,1.1c0.8,0.6,1.2,1.6,1.2,2.8c0,1.7-1.2,2.9-2.3,3.3
			v0.1c0.9,0.4,1.4,1.3,1.7,2.5c0.4,1.5,0.8,3.3,1,3.8h-3c-0.2-0.4-0.5-1.5-0.9-3.1c-0.4-1.7-0.9-2.1-2.1-2.2h-0.9v5.3h-2.9V15.9z
			 M22.7,21.7h1.1c1.5,0,2.3-0.8,2.3-1.9c0-1.2-0.8-1.9-2.2-1.9c-0.7,0-1.1,0-1.3,0.1V21.7z"/>
		<path class="st3" d="M43.1,22.3c0,4.4-2.6,7.1-6.4,7.1c-3.8,0-6.1-3-6.1-6.9c0-4,2.5-7.1,6.3-7.1C41,15.5,43.1,18.6,43.1,22.3z
			 M33.8,22.5c0,2.6,1.2,4.5,3.2,4.5c2,0,3.1-1.9,3.1-4.6c0-2.4-1.1-4.5-3.1-4.5C34.9,17.9,33.8,19.9,33.8,22.5z"/>
		<path class="st3" d="M45.2,15.9c1.1-0.2,2.5-0.3,4-0.3c2.5,0,4.1,0.5,5.3,1.4c1.3,1,2.2,2.7,2.2,5.1c0,2.6-0.9,4.4-2.1,5.5
			c-1.4,1.2-3.5,1.7-6,1.7c-1.5,0-2.6-0.1-3.3-0.2V15.9z M48.1,26.9c0.3,0,0.7,0.1,1,0.1c2.7,0,4.4-1.5,4.4-4.7
			c0-2.8-1.6-4.3-4.1-4.3c-0.6,0-1.1,0.1-1.3,0.1V26.9z"/>
		<path class="st3" d="M58.6,15.9c0.9-0.2,2.3-0.3,3.9-0.3c1.9,0,3.3,0.3,4.2,1.1c0.8,0.6,1.2,1.6,1.2,2.8c0,1.7-1.2,2.9-2.3,3.3
			v0.1c0.9,0.4,1.4,1.3,1.7,2.5c0.4,1.5,0.8,3.3,1,3.8h-3c-0.2-0.4-0.5-1.5-0.9-3.1c-0.4-1.7-0.9-2.1-2.1-2.2h-0.9v5.3h-2.9V15.9z
			 M61.6,21.7h1.1c1.5,0,2.3-0.8,2.3-1.9c0-1.2-0.8-1.9-2.2-1.9c-0.7,0-1.1,0-1.3,0.1V21.7z"/>
		<path class="st3" d="M73.1,15.7v13.5h-2.9V15.7H73.1z"/>
		<path class="st3" d="M86.6,28.6c-0.9,0.3-2.6,0.8-4.3,0.8c-2.4,0-4.1-0.6-5.3-1.8c-1.2-1.2-1.8-2.9-1.8-4.9c0-4.5,3.2-7,7.4-7
			c1.7,0,3,0.3,3.6,0.6l-0.6,2.4c-0.7-0.3-1.6-0.6-3-0.6c-2.4,0-4.3,1.4-4.3,4.4c0,2.8,1.7,4.4,4.1,4.4c0.7,0,1.2-0.1,1.4-0.2v-2.8
			h-2v-2.4h4.8V28.6z"/>
		<path class="st3" d="M100.8,22.3c0,4.4-2.6,7.1-6.4,7.1c-3.8,0-6.1-3-6.1-6.9c0-4,2.5-7.1,6.3-7.1
			C98.6,15.5,100.8,18.6,100.8,22.3z M91.4,22.5c0,2.6,1.2,4.5,3.2,4.5c2,0,3.1-1.9,3.1-4.6c0-2.4-1.1-4.5-3.1-4.5
			C92.6,17.9,91.4,19.9,91.4,22.5z"/>
		<path class="st3" d="M19.8,31.7h7.9v2.5h-5v3.1h4.7v2.5h-4.7v5.4h-2.9V31.7z"/>
		<path class="st3" d="M33.6,31.7v7.8c0,2.3,0.9,3.5,2.3,3.5c1.5,0,2.4-1.1,2.4-3.5v-7.8h2.9v7.6c0,4.2-2,6.1-5.4,6.1
			c-3.3,0-5.2-1.9-5.2-6.2v-7.5H33.6z"/>
		<path class="st3" d="M52.4,39.5h-4.8v3.2h5.3v2.5h-8.3V31.7h8v2.5h-5.1V37h4.8V39.5z"/>
		<path class="st3" d="M55.7,45.2V31.7h3.4l2.7,4.9c0.8,1.4,1.5,3.1,2.1,4.6l0,0c-0.2-1.8-0.2-3.6-0.2-5.6v-3.9h2.7v13.5h-3.1
			L60.6,40c-0.8-1.5-1.6-3.2-2.3-4.8l-0.1,0c0.1,1.8,0.1,3.7,0.1,5.9v4.1H55.7z"/>
		<path class="st3" d="M72.3,34.3h-3.5v-2.6h10v2.6h-3.5v10.9h-2.9V34.3z"/>
		<path class="st3" d="M88.9,39.5h-4.8v3.2h5.3v2.5h-8.3V31.7h8v2.5h-5.1V37h4.8V39.5z"/>
		<path class="st3" d="M92.3,42.1c0.8,0.4,2,0.8,3.3,0.8c1.3,0,2.1-0.6,2.1-1.5c0-0.8-0.6-1.3-2.2-1.9c-2.2-0.8-3.6-2-3.6-4
			c0-2.3,1.9-4,4.9-4c1.5,0,2.5,0.3,3.3,0.7l-0.6,2.4C98.9,34.4,98,34,96.8,34c-1.3,0-1.9,0.6-1.9,1.3c0,0.9,0.7,1.2,2.4,1.9
			c2.3,0.9,3.4,2.1,3.4,4c0,2.3-1.7,4.2-5.2,4.2c-1.5,0-2.9-0.4-3.7-0.8L92.3,42.1z"/>
	</g>
</g>
</svg>
